# xmcd
#
# Track frame offsets: 
#        183
#        28583
#        50108
#        69933
#        85283
#        105533
#        126208
#        147670
#
# Disc length: 2275 seconds
#
# Revision: 9
# Processed by: cddbd v1.5.2PL0 Copyright (c) Steve Scherf et al.
# Submitted via: ExactAudioCopyFreeDBPlugin 1.0
#
DISCID=7108e108
DTITLE=Lucio Battisti - Il mio canto libero
DYEAR=1972
DGENRE=Pop
TTITLE0=La luce dell'est
TTITLE1=Luci-ah
TTITLE2=L'aquila
TTITLE3=Vento nel vento
TTITLE4=Confusione
TTITLE5=Io vorrei ... non vorrei ... ma se vuoi
TTITLE6=Gente per bene e gente per male
TTITLE7=Il mio canto libero
EXTD=
EXTT0=
EXTT1=
EXTT2=
EXTT3=
EXTT4=
EXTT5=
EXTT6=
EXTT7=
PLAYORDER=
